<svg xmlns="http://www.w3.org/2000/svg" xmlns:xlink="http://www.w3.org/1999/xlink" width="1000" height="1000" viewBox="0 0 1000 1000">
  <defs>
    <clipPath id="clip-spotex_logo_1.0_2">
      <rect width="1000" height="1000"/>
    </clipPath>
  </defs>
  <g id="spotex_logo_1.0_2" data-name="spotex_logo 1.0 – 2" clip-path="url(#clip-spotex_logo_1.0_2)">
    <rect width="1000" height="1000" fill="#fff"/>
    <g id="daconvertire_1_" data-name="daconvertire (1)" transform="translate(127.112 124.151)">
      <path id="Tracciato_162" data-name="Tracciato 162" d="M472.754,116.621c8.876,8.792,17.235,17.085,26.2,25.976-20.64,17.4-40.568,34.042-60.318,50.888Q316.976,297.254,195.412,401.134c-1.285,1.1-3.095,2.081-3.6,3.5-1.377,3.864-3.73,8.406-2.7,11.755.734,2.382,6.325,4.6,9.759,4.617,43.692.2,87.387-.019,131.081-.126,5.394-.013,10.787,0,17.652,0L241.486,603.249c-3.116-2.923-5.553-5.086-7.854-7.385Q148.463,510.735,63.324,425.575c-31.205-31.222-31.262-68.871-.105-100.046Q192.165,196.507,321.175,67.548c32.862-32.848,69.4-32.922,102.188-.279C439.688,83.519,455.948,99.835,472.754,116.621Z" transform="translate(0)" fill="#001f3f"/>
      <path id="Tracciato_163" data-name="Tracciato 163" d="M441.545,288.572c-5.167-1.869-9.959-3.954-14.752-3.956-43.344-.016-86.689.334-130.033.574-2.891.016-5.781,0-10.143,0L400.079,98.136c2.8,2.651,5.262,4.882,7.612,7.23q81.94,81.887,163.849,163.807c30.169,30.2,30.116,68.263-.174,98.578Q441,498.223,310.549,628.6c-29.728,29.715-68.036,29.7-97.885.04-21.577-21.44-43.112-42.923-65.421-65.138,9.6-8.311,18.535-15.9,27.314-23.674Q300.724,428.147,426.819,316.382c4.049-3.589,8.778-7,11.315-11.54C440.637,300.361,440.755,294.549,441.545,288.572Z" transform="translate(110.851 57.085)" fill="#001f3f"/>
    </g>
  </g>
</svg>
