<svg xmlns="http://www.w3.org/2000/svg" xmlns:xlink="http://www.w3.org/1999/xlink" width="4085" height="952" viewBox="0 0 4085 952">
  <defs>
    <clipPath id="clip-spotex_logo_1.0_7">
      <rect width="4085" height="952"/>
    </clipPath>
  </defs>
  <g id="spotex_logo_1.0_7" data-name="spotex_logo 1.0 – 7" clip-path="url(#clip-spotex_logo_1.0_7)">
    <text id="_make_IT_easier_and_simple_" data-name="&lt; make IT easier and simple /&gt;" transform="translate(568 717)" fill="#fff" font-size="159" font-family="SFMono-MediumItalic, SF Mono" font-weight="500" font-style="italic"><tspan x="0" y="0">&lt; make IT easier and simple /&gt;</tspan></text>
    <text id="Spotex_Srl" data-name="Spotex Srl" transform="translate(1194 487)" fill="#fff" font-size="329" font-family="SFMono-Semibold, SF Mono" font-weight="600"><tspan x="0" y="0">Spotex Srl</tspan></text>
    <g id="daconvertire_1_" data-name="daconvertire (1)" transform="translate(677 120.069)">
      <path id="Tracciato_162" data-name="Tracciato 162" d="M302.214,87.556c5.379,5.328,10.445,10.354,15.877,15.742-12.509,10.547-24.585,20.63-36.554,30.839q-73.728,62.887-147.4,125.84c-.779.665-1.876,1.261-2.181,2.118-.835,2.342-2.261,5.094-1.635,7.124.445,1.444,3.833,2.789,5.914,2.8,26.479.12,52.958-.012,79.438-.077,3.269-.008,6.537,0,10.7,0L162.06,382.464c-1.888-1.771-3.365-3.082-4.759-4.475Q105.686,326.4,54.09,274.79c-18.911-18.921-18.946-41.737-.064-60.63q78.144-78.191,156.327-156.343c19.915-19.907,42.055-19.951,61.928-.169C282.175,67.5,292.029,77.384,302.214,87.556Z" fill="#fff"/>
      <path id="Tracciato_163" data-name="Tracciato 163" d="M325.6,213.544c-3.131-1.133-6.036-2.4-8.94-2.4-26.268-.009-52.535.2-78.8.348-1.752.01-3.5,0-6.147,0l68.761-113.36c1.695,1.606,3.189,2.959,4.613,4.381q49.658,49.626,99.3,99.271c18.283,18.3,18.251,41.369-.105,59.741q-79,79.069-158.06,158.083c-18.016,18.008-41.232,18-59.321.024-13.076-12.993-26.127-26.012-39.646-39.475,5.817-5.037,11.233-9.637,16.553-14.347Q240.256,298.13,316.673,230.4c2.454-2.175,5.32-4.242,6.857-6.994C325.047,220.689,325.119,217.167,325.6,213.544Z" transform="translate(24.882 12.813)" fill="#fff"/>
    </g>
  </g>
</svg>
